<?xml version="1.0" standalone="no"?>
<!DOCTYPE svg PUBLIC "-//W3C//DTD SVG 1.1//EN" "http://www.w3.org/Graphics/SVG/1.1/DTD/svg11.dtd" >
<svg xmlns="http://www.w3.org/2000/svg" xmlns:svg="http://www.w3.org/2000/svg" xmlns:xlink="http://www.w3.org/1999/xlink" viewBox="0 0 2048 2048"><path d="M113.24 381.02H633.52V64.76L985.9 262.39Q998.89 212.96 1057.53 211.14Q907.5 251.78 923.97 264.11V438.42H1320.43V106.33L1649.06 155.89Q1611.87 123.22 1616.05 138.76Q1672.32 277 1601.14 177.51V420.78H1709.34L1809.34 227.04Q1885.31 266.74 1886.7 180.58Q1877.55 288.06 1889.5 252.1Q2051.95 335.91 2005.07 316.41Q2085.73 399.02 2045.48 383.95Q2077.96 514.82 2052.2 461.45H1567.77V649.34Q1544.89 689.46 1576.62 690.59Q1434.14 612.8 1475.91 666.57Q1344.54 666.84 1361.76 702.54H1281.44V461.23H934.12V632.06Q892.17 586.94 889.83 668.58Q872.03 680.03 821.85 614.44Q760.16 651.12 717.7 715.15H659.45V472.89H173.31ZM1719.28 875.81L2083.31 1012.86Q2099.99 1034.08 2012.42 1037.21Q2039.48 1071.54 1943.28 1042.4Q1807.82 1158.47 1635.42 1269.73Q1467.63 1281.69 1391.75 1346.15V1677.35Q1356.62 1711.15 1445.96 1748.48Q1423.22 1784.79 1439.39 1790.32H1656.13Q1720.18 1780.18 1815.98 1828.55Q1743.91 1733.91 1824.86 1744.39Q1767.3 1786.75 1812.77 1717.41Q1909.21 1804.83 1809.7 1807.42Q1878.92 1680.52 1875.67 1565.09Q1955.01 1503.69 1913.61 1503.8H1982.47L1924.81 1781.39Q2044.46 1759.45 2009.79 1839.81Q2145.87 1878.53 2132.6 1839.39Q2110.68 1874.23 2085.56 1970.45Q2008.23 2036.92 1964.34 1958.75Q1810.49 2033.57 1578.8 1982.65H1477.48Q1354.01 2054 1221.85 2012.74Q1103.78 2026.78 1052.24 1975.61Q1119.79 1964.55 1087.43 1748.54V699.12L1493.94 642.17Q1466.94 794.7 1441.21 688.42Q1491.66 753.87 1392.8 820.94V1297.44Q1514.83 1191.34 1582.62 998.64Q1672.53 894.5 1727.08 791.69ZM658.52 734.31L1054.62 816.79Q966 859.14 983.2 895.3Q944.45 857.71 895.82 891.14Q887.11 892.6 851.98 955.89Q739.01 1046.65 752.29 1107.58L812.19 1187.52Q809.78 1200.22 853.5 1215.23V1988.38Q781.24 2029.66 737.93 2102.07Q776.51 2060.05 660.56 2045Q632.72 2082.07 562.24 2083.26H431.33V1204.65Q463.41 1266.07 377.75 1436.5Q195.27 1403.23 89.45 1512.03L85.55 1511.52Q219.92 1344.82 206.32 1258.89Q483.21 1055.21 470.4 995.24Q517.38 846.26 669.14 707.23Z" fill="black"></path></svg>