<?xml version="1.0" standalone="no"?>
<!DOCTYPE svg PUBLIC "-//W3C//DTD SVG 1.1//EN" "http://www.w3.org/Graphics/SVG/1.1/DTD/svg11.dtd" >
<svg xmlns="http://www.w3.org/2000/svg" xmlns:svg="http://www.w3.org/2000/svg" xmlns:xlink="http://www.w3.org/1999/xlink" viewBox="0 0 2048 2048"><path d="M56.0 320.5H564.0V58.5L925.0 89.5Q923.0 109.5 908.0 124.0Q893.0 138.5 853.0 144.5V320.5H1179.0V58.5L1545.0 89.5Q1544.0 109.5 1528.5 124.0Q1513.0 138.5 1474.0 144.5V320.5H1615.0L1752.0 134.5Q1752.0 134.5 1777.0 155.0Q1802.0 175.5 1840.5 208.0Q1879.0 240.5 1921.0 277.0Q1963.0 313.5 1996.0 345.5Q1990.0 378.5 1938.0 378.5H1474.0V525.5Q1474.0 537.5 1439.0 552.0Q1404.0 566.5 1347.5 577.0Q1291.0 587.5 1226.0 587.5H1179.0V378.5H853.0V537.5Q853.0 549.5 819.5 564.0Q786.0 578.5 731.0 589.0Q676.0 599.5 611.0 599.5H564.0V378.5H71.0ZM1631.0 714.5 1971.0 935.5Q1957.0 955.5 1934.5 962.0Q1912.0 968.5 1865.0 955.5Q1726.0 1058.5 1588.5 1132.5Q1451.0 1206.5 1318.0 1250.5V1617.5Q1318.0 1646.5 1335.0 1657.5Q1352.0 1668.5 1398.0 1668.5H1574.0Q1615.0 1668.5 1651.5 1668.0Q1688.0 1667.5 1709.0 1666.5Q1731.0 1664.5 1746.0 1658.5Q1761.0 1652.5 1775.0 1635.5Q1796.0 1606.5 1825.5 1533.5Q1855.0 1460.5 1889.0 1363.5H1908.0L1916.0 1647.5Q1976.0 1674.5 1996.0 1701.5Q2016.0 1728.5 2016.0 1768.5Q2016.0 1831.5 1973.5 1871.0Q1931.0 1910.5 1827.5 1930.0Q1724.0 1949.5 1541.0 1949.5H1336.0Q1216.0 1949.5 1149.0 1928.5Q1082.0 1907.5 1054.5 1852.5Q1027.0 1797.5 1027.0 1695.5V609.5L1387.0 642.5Q1386.0 663.5 1370.5 678.5Q1355.0 693.5 1318.0 697.5V1185.5Q1396.0 1094.5 1480.0 969.5Q1564.0 844.5 1631.0 714.5ZM527.0 589.5 906.0 734.5Q899.0 752.5 877.0 763.5Q855.0 774.5 818.0 771.5Q774.0 837.5 725.0 897.5Q676.0 957.5 626.0 1011.5L785.0 1070.5Q775.0 1100.5 722.0 1109.5V1920.5Q720.0 1929.5 685.0 1946.0Q650.0 1962.5 597.0 1976.0Q544.0 1989.5 488.0 1989.5H435.0V1183.5Q343.0 1255.5 246.5 1312.5Q150.0 1369.5 50.0 1414.5L32.0 1396.5Q121.0 1304.5 213.0 1176.5Q305.0 1048.5 387.0 897.5Q469.0 746.5 527.0 589.5Z" fill="black"></path></svg>